<?xml version="1.0" standalone="no"?>
<!DOCTYPE svg PUBLIC "-//W3C//DTD SVG 20010904//EN"
 "http://www.w3.org/TR/2001/REC-SVG-20010904/DTD/svg10.dtd">
<svg version="1.0" xmlns="http://www.w3.org/2000/svg"
 width="630.000000pt" height="630.000000pt" viewBox="0 0 630.000000 630.000000"
 preserveAspectRatio="xMidYMid meet">
<metadata>
Created by potrace 1.11, written by Peter Selinger 2001-2013
</metadata>
<g transform="translate(0.000000,630.000000) scale(0.100000,-0.100000)"
fill="#000000" stroke="none">
<path d="M0 3150 l0 -3150 3150 0 3150 0 0 3150 0 3150 -3150 0 -3150 0 0
-3150z m2185 1646 c96 -26 253 -108 331 -175 288 -243 380 -660 219 -998 -110
-233 -308 -397 -560 -464 -112 -30 -297 -30 -410 0 -312 83 -542 318 -616 629
-18 72 -20 110 -17 222 4 120 8 146 37 230 18 52 44 115 58 140 125 219 334
374 573 425 84 18 302 13 385 -9z m2245 -14 c334 -110 563 -402 587 -748 38
-571 -496 -1015 -1053 -874 -417 106 -692 524 -623 950 54 338 319 620 654
694 50 11 108 15 205 12 119 -3 147 -7 230 -34z m-1030 -188 c0 -8 -19 -13
-24 -6 -3 5 1 9 9 9 8 0 15 -2 15 -3z m1551 -11 c13 -16 12 -17 -3 -4 -17 13
-22 21 -14 21 2 0 10 -8 17 -17z m539 -1497 c0 -2 -7 -7 -16 -10 -8 -3 -12 -2
-9 4 6 10 25 14 25 6z m-499 -123 c13 -16 12 -17 -3 -4 -17 13 -22 21 -14 21
2 0 10 -8 17 -17z m-281 -377 c0 -2 -8 -10 -17 -17 -16 -13 -17 -12 -4 4 13
16 21 21 21 13z m-46 -17 c-3 -6 -20 -20 -38 -31 -24 -16 -26 -19 -8 -15 23 5
22 -3 -5 -35 -10 -11 -11 -18 -4 -23 17 -10 15 -642 -1 -648 -7 -3 -1 -6 13
-6 15 -1 31 -7 37 -14 8 -10 5 -13 -16 -14 -24 -1 -24 -1 -7 7 16 7 16 9 4 9
-9 1 -27 -8 -40 -19 -13 -10 -19 -19 -12 -20 6 0 13 6 16 13 2 6 8 8 13 4 12
-11 -26 -39 -44 -32 -7 2 -11 1 -8 -4 6 -9 -13 -17 -194 -87 -360 -139 -852
-206 -1410 -191 -267 8 -626 46 -690 74 -16 7 -27 10 -47 12 -7 0 -13 6 -13
12 0 6 9 8 23 4 20 -5 20 -5 4 6 -14 8 -22 8 -30 0 -6 -6 -18 -11 -26 -11 -13
1 -13 2 2 11 16 9 17 36 17 327 l0 317 44 16 c42 15 49 15 192 -18 734 -164
1341 -96 1976 223 70 35 133 62 140 60 7 -1 10 -1 5 1 -14 9 3 21 23 16 11 -3
17 -9 14 -14 -3 -5 2 -6 12 -2 14 5 13 8 -6 18 -22 12 -22 12 9 24 17 7 36 19
42 27 14 17 23 19 13 3z m-27 -411 l-1 -333 -3 323 c-3 247 -6 322 -16 322 -8
0 -7 4 3 10 8 5 16 10 17 10 1 0 1 -150 0 -332z m-2413 108 c9 3 16 1 16 -5 0
-6 8 -8 18 -4 11 4 14 3 7 -4 -17 -18 -71 -32 -86 -22 -11 7 -11 9 -1 9 9 0
11 7 6 22 -6 20 -5 21 8 10 9 -7 23 -10 32 -6z m3246 -66 c0 -5 -5 -10 -11
-10 -5 0 -7 5 -4 10 3 6 8 10 11 10 2 0 4 -4 4 -10z m-80 -80 c0 -5 -5 -10
-11 -10 -5 0 -7 5 -4 10 3 6 8 10 11 10 2 0 4 -4 4 -10z m-70 -53 c0 -2 -10
-12 -22 -23 l-23 -19 19 23 c18 21 26 27 26 19z"/>
<path d="M1874 4286 c-98 -32 -182 -118 -211 -215 -60 -207 90 -411 303 -411
39 0 91 7 117 16 67 23 144 96 178 169 73 153 5 346 -147 421 -66 32 -175 42
-240 20z"/>
<path d="M4056 4276 c-73 -31 -138 -93 -174 -166 -21 -44 -27 -69 -27 -130 0
-123 60 -226 167 -286 49 -27 61 -29 153 -29 79 0 107 4 135 19 71 38 119 86
152 153 28 58 33 77 32 143 0 92 -23 148 -89 219 -88 94 -232 126 -349 77z"/>
</g>
</svg>
