<?xml version="1.0" encoding="UTF-8" standalone="no"?>
<!-- Created with Inkscape (http://www.inkscape.org/) by Toomai Glittershine for SmashWiki -->
<svg id="svg2" xmlns:rdf="http://www.w3.org/1999/02/22-rdf-syntax-ns#" xmlns="http://www.w3.org/2000/svg" version="1.1" xmlns:cc="http://creativecommons.org/ns#" xmlns:dc="http://purl.org/dc/elements/1.1/"
		height="256" width="256"
		viewBox="0 0 256 256">
	<metadata id="metadata7">
		<rdf:RDF>
			<cc:Work rdf:about="">
				<dc:format>image/svg+xml</dc:format>
				<dc:type rdf:resource="http://purl.org/dc/dcmitype/StillImage"/>
				<dc:title/>
			</cc:Work>
		</rdf:RDF>
	</metadata>
	<path id="mainsymbolpath" style="opacity:0.9;fill:#1f9cef;fill-opacity:1;stroke:none"
		d="m 128,47.20312 c -12.89315,0 -10.97526,35.065357 -21.84375,44.25 -15.256901,12.89316 -66.84375,27.94098 -66.84375,69.84375 0,24.71188 10.254128,47.5 88.6875,47.5 78.43337,0 88.6875,-22.78812 88.6875,-47.5 0,-41.90277 -51.58685,-56.95059 -66.84375,-69.84375 -10.86849,-9.184643 -8.9506,-44.25 -21.84375,-44.25 z m -22.0625,84.4375 c 8.1888,0 14.84375,6.65496 14.84375,14.84375 0,8.1888 -6.65495,14.8125 -14.84375,14.8125 -8.188798,0 -14.8125,-6.6237 -14.8125,-14.8125 0,-8.18879 6.623702,-14.84375 14.8125,-14.84375 z m 44.125,0 c 8.1888,0 14.8125,6.65496 14.8125,14.84375 0,8.1888 -6.6237,14.8125 -14.8125,14.8125 -8.1888,0 -14.84375,-6.6237 -14.84375,-14.8125 0,-8.18879 6.65495,-14.84375 14.84375,-14.84375 z m -44.125,8.59375 c -3.44167,0 -6.21875,2.80832 -6.21875,6.25 0,3.44167 2.77708,6.21875 6.21875,6.21875 3.44167,0 6.21875,-2.77708 6.21875,-6.21875 0,-3.44168 -2.77708,-6.25 -6.21875,-6.25 z m 44.125,0 c -3.44167,0 -6.21875,2.80832 -6.21875,6.25 0,3.44167 2.77708,6.21875 6.21875,6.21875 3.44167,0 6.21875,-2.77708 6.21875,-6.21875 0,-3.44168 -2.77708,-6.25 -6.21875,-6.25 z M 163.5,165.26562 a 5.0005,5.0005 0 0 1 3.59375,8.40625 c 0,0 -3.30915,3.5621 -9.625,6.625 -6.31585,3.06289 -15.96875,6 -29.46875,6 -13.5,0 -23.1529,-2.93711 -29.46875,-6 -6.315849,-3.0629 -9.625,-6.625 -9.625,-6.625 a 5.0009765,5.0009765 0 1 1 7.4375,-6.6875 c 0,0 1.579129,1.8958 6.5625,4.3125 4.98337,2.4167 13.02232,5 25.09375,5 12.07143,0 20.11038,-2.5833 25.09375,-5 4.98337,-2.4167 6.5625,-4.3125 6.5625,-4.3125 A 5.0005,5.0005 0 0 1 163.5,165.26562 z"
	/>
</svg>